C:\Users\lingh\OneDrive - KTH\ExMaterials\7-Doctor\Research\2-simulation\PredSimResults\Falisse_et_al_20220.2weak\Falisse_et_al_2022_v1.mot
version=1
nRows=4
nColumns=124
inDegrees=yes
endheader
                time	         pelvis_tilt	         pelvis_list	     pelvis_rotation	           pelvis_tx	           pelvis_ty	           pelvis_tz	       hip_flexion_r	     hip_adduction_r	      hip_rotation_r	        knee_angle_r	       ankle_angle_r	    subtalar_angle_r	         mtp_angle_r	       hip_flexion_l	     hip_adduction_l	      hip_rotation_l	        knee_angle_l	       ankle_angle_l	    subtalar_angle_l	         mtp_angle_l	    lumbar_extension	      lumbar_bending	     lumbar_rotation	          arm_flex_r	           arm_add_r	           arm_rot_r	        elbow_flex_r	          arm_flex_l	           arm_add_l	           arm_rot_l	        elbow_flex_l	glut_med1_r/activation	glut_med2_r/activation	glut_med3_r/activation	glut_min1_r/activation	glut_min2_r/activation	glut_min3_r/activation	semimem_r/activation	semiten_r/activation	bifemlh_r/activation	bifemsh_r/activation	    sar_r/activation	add_long_r/activation	add_brev_r/activation	add_mag1_r/activation	add_mag2_r/activation	add_mag3_r/activation	    tfl_r/activation	   pect_r/activation	   grac_r/activation	glut_max1_r/activation	glut_max2_r/activation	glut_max3_r/activation	iliacus_r/activation	  psoas_r/activation	quad_fem_r/activation	    gem_r/activation	   peri_r/activation	rect_fem_r/activation	vas_med_r/activation	vas_int_r/activation	vas_lat_r/activation	med_gas_r/activation	lat_gas_r/activation	 soleus_r/activation	tib_post_r/activation	flex_dig_r/activation	flex_hal_r/activation	tib_ant_r/activation	per_brev_r/activation	per_long_r/activation	per_tert_r/activation	ext_dig_r/activation	ext_hal_r/activation	glut_med1_l/activation	glut_med2_l/activation	glut_med3_l/activation	glut_min1_l/activation	glut_min2_l/activation	glut_min3_l/activation	semimem_l/activation	semiten_l/activation	bifemlh_l/activation	bifemsh_l/activation	    sar_l/activation	add_long_l/activation	add_brev_l/activation	add_mag1_l/activation	add_mag2_l/activation	add_mag3_l/activation	    tfl_l/activation	   pect_l/activation	   grac_l/activation	glut_max1_l/activation	glut_max2_l/activation	glut_max3_l/activation	iliacus_l/activation	  psoas_l/activation	quad_fem_l/activation	    gem_l/activation	   peri_l/activation	rect_fem_l/activation	vas_med_l/activation	vas_int_l/activation	vas_lat_l/activation	med_gas_l/activation	lat_gas_l/activation	 soleus_l/activation	tib_post_l/activation	flex_dig_l/activation	flex_hal_l/activation	tib_ant_l/activation	per_brev_l/activation	per_long_l/activation	per_tert_l/activation	ext_dig_l/activation	ext_hal_l/activation	 ercspn_r/activation	 ercspn_l/activation	 intobl_r/activation	 intobl_l/activation	 extobl_r/activation	 extobl_l/activation	
          1.14605959	         -6.93862464	         -4.08774687	         12.83002482	          1.50652569	          0.89439490	         -0.01403648	         36.57137304	         -1.19865888	         -4.00640904	        -15.27727879	         13.67824094	         -3.06586963	          0.29320760	        -11.90739624	         -5.34092028	          5.09692318	        -11.16729022	          5.21956844	          4.05795737	         35.15574727	          2.58645470	         -0.94416419	         -2.03242396	        -16.19346233	        -13.53124785	         19.16578609	         10.12049543	          2.98667744	        -13.45137460	         16.90384035	         94.14950834	          0.23180972	          0.05000866	          0.05000264	          0.25949594	          0.15236468	          0.05009379	          0.18177025	          0.05955642	          0.05955135	          0.11979030	          0.05954903	          0.08453416	          0.10061475	          0.07092679	          0.07091529	          0.29446506	          0.06647800	          0.08769566	          0.10067825	          0.05000352	          0.24969020	          0.30986465	          0.10060718	          0.10060879	          0.05000900	          0.05954427	          0.05002884	          0.05000119	          0.05000099	          0.05000095	          0.05000087	          0.05955029	          0.05955003	          0.05955034	          0.05000029	          0.05000181	          0.05000154	          0.67940988	          0.28693376	          0.17726179	          0.55017891	          0.67051621	          0.42097088	          0.07337275	          0.10034765	          0.10933624	          0.05001131	          0.06600434	          0.08456485	          0.05000311	          0.05000174	          0.05000113	          0.05000137	          0.05007230	          0.18094739	          0.09797383	          0.09337653	          0.06332218	          0.05000206	          0.07086775	          0.05006854	          0.10056828	          0.05946985	          0.10058097	          0.11986003	          0.11700833	          0.42722866	          0.15212389	          0.11984467	          0.10061275	          0.33475581	          0.09283212	          0.10410888	          0.08095030	          0.51753863	          0.77798210	          0.14739884	          0.64645028	          0.64813863	          0.65329355	          0.05000028	          0.05957533	          0.11030660	          0.05000099	          0.05000037	          0.05000160	          0.14323206	          0.06626984	          0.19862383	          0.05000029	          0.07092541	          0.05000035	
          1.15752018	         -6.95341468	         -3.73364410	         13.02416249	          1.52458633	          0.89218237	         -0.01493598	         36.51475566	         -1.42560231	         -3.65560068	        -16.57940748	         13.04030595	         -3.32806566	          0.33698889	        -12.94308403	         -5.23021568	          4.58042725	        -11.28132665	          3.82032190	          4.24920409	         36.34687521	          2.69190071	         -0.69629348	         -1.97407151	        -17.90647421	        -13.54235669	         18.97076253	         10.31606392	          3.36130470	        -13.46031764	         17.53379950	         97.10532058	          0.19464250	          0.07365380	          0.15293610	          0.21788118	          0.12793556	          0.05012333	          0.15261879	          0.05000526	          0.05000089	          0.10057890	          0.05004767	          0.07097707	          0.08447864	          0.05955255	          0.05955041	          0.33109634	          0.07116782	          0.07363238	          0.08453233	          0.09506636	          0.25799012	          0.33469427	          0.08447240	          0.08447371	          0.07094351	          0.05000247	          0.05004860	          0.07092580	          0.11862264	          0.12855454	          0.12582780	          0.05000020	          0.05000041	          0.05000006	          0.07092456	          0.05956344	          0.05967272	          0.57044893	          0.30816746	          0.19554410	          0.46194440	          0.56298266	          0.35345750	          0.06161099	          0.08425562	          0.09180167	          0.05021389	          0.05546449	          0.07100592	          0.05005833	          0.05001787	          0.05256309	          0.06094524	          0.05937924	          0.27319079	          0.09561801	          0.14126348	          0.08223854	          0.05009376	          0.05952258	          0.07090009	          0.08444195	          0.05009927	          0.08445149	          0.10063794	          0.09824346	          0.35871166	          0.12772693	          0.10062500	          0.08447851	          0.28106897	          0.12274265	          0.15215003	          0.12161557	          0.45498177	          0.69265222	          0.13833411	          0.62375139	          0.62214607	          0.63017348	          0.05000042	          0.05002106	          0.09261613	          0.05000099	          0.05000034	          0.05000184	          0.12026112	          0.08235851	          0.16676931	          0.05000039	          0.05955094	          0.05000018	
          1.16898078	         -6.96235340	         -3.34634078	         13.16223836	          1.54290105	          0.88999395	         -0.01578236	         36.30393652	         -1.60054896	         -3.27823591	        -18.29774331	         12.54972794	         -3.58295406	          0.26551507	        -13.79878578	         -5.06609708	          4.03678194	        -11.77780926	          2.45949257	          4.45774528	         37.29557749	          2.81747103	         -0.45779669	         -1.90808798	        -19.59652123	        -13.54268734	         18.77106420	         10.58967299	          3.68526224	        -13.47610642	         18.07814403	         99.82232411	          0.18573721	          0.11385416	          0.23644363	          0.18295038	          0.10746591	          0.17696180	          0.13130695	          0.09087152	          0.08946503	          0.08444974	          0.05957927	          0.05959418	          0.07093039	          0.05000231	          0.05000127	          0.35923795	          0.05976678	          0.06182486	          0.07097654	          0.07986540	          0.39015443	          0.42002994	          0.07092511	          0.07092620	          0.05956674	          0.08244902	          0.32489983	          0.05955105	          0.09959850	          0.10793755	          0.10564810	          0.05865389	          0.05955063	          0.05439102	          0.05955022	          0.05001301	          0.05010447	          0.69372992	          0.25874831	          0.19466228	          0.38786006	          0.68590738	          0.38754087	          0.06138802	          0.07074422	          0.07707915	          0.05006747	          0.05007908	          0.05962050	          0.05012462	          0.05007085	          0.05000599	          0.05117244	          0.05005757	          0.34952362	          0.16607336	          0.11861139	          0.06915815	          0.13582290	          0.05006565	          0.05953915	          0.07090036	          0.05012118	          0.07090929	          0.08449860	          0.08248830	          0.43293113	          0.10724261	          0.08448740	          0.07093081	          0.23599220	          0.11764613	          0.12777681	          0.10217840	          0.39410298	          0.62780461	          0.13501372	          0.58999924	          0.57368910	          0.58981367	          0.05000036	          0.05000085	          0.07776311	          0.05000100	          0.05000036	          0.05000168	          0.10097419	          0.10389044	          0.17727990	          0.05000033	          0.05000077	          0.05000148	
          1.18044137	         -6.96832848	         -2.94438578	         13.23260488	          1.56121607	          0.88801085	         -0.01655994	         35.99798314	         -1.74596544	         -2.89287190	        -19.94019264	         12.23960488	         -3.85407364	          0.25575436	        -14.41604693	         -4.86349420	          3.45832554	        -12.71491231	          1.16436509	          4.69171951	         37.88003464	          2.94403841	         -0.20793286	         -1.83509788	        -21.18918465	        -13.53775455	         18.58665047	         10.87966911	          3.97364186	        -13.48578176	         18.52899895	        102.25732235	          0.38298977	          0.42684034	          0.50559223	          0.19103143	          0.23803915	          0.30154820	          0.11024865	          0.10529585	          0.08360999	          0.07090631	          0.05002999	          0.05003693	          0.05955502	          0.05000919	          0.09344416	          0.39210818	          0.05018601	          0.05191148	          0.05959570	          0.32564274	          0.46749702	          0.48690629	          0.05955050	          0.05955139	          0.05001787	          0.06923010	          0.29380129	          0.05000068	          0.08362787	          0.09064906	          0.15863612	          0.05000030	          0.05000093	          0.05000012	          0.05000032	          0.05000235	          0.05000180	          0.76142293	          0.32379394	          0.17037442	          0.65297029	          0.70591018	          0.49230094	          0.16982252	          0.05939984	          0.06471776	          0.12504879	          0.05009031	          0.05006136	          0.05017808	          0.05000302	          0.05000155	          0.05000307	          0.05004812	          0.38817450	          0.19373387	          0.09959104	          0.05808823	          0.13641928	          0.05007769	          0.05005491	          0.05953062	          0.05007518	          0.05953904	          0.07094756	          0.08446586	          0.49075081	          0.09004349	          0.07093791	          0.05955599	          0.19814469	          0.15560908	          0.16012813	          0.13801323	          0.33089842	          0.54851234	          0.12918204	          0.56556921	          0.54892062	          0.56223722	          0.05000032	          0.05000969	          0.07049229	          0.05000155	          0.05000048	          0.05000183	          0.09112969	          0.14354571	          0.16731263	          0.05000013	          0.05000045	          0.05000039	
